<?xml version="1.0" encoding="UTF-8"?>
<svg xmlns="http://www.w3.org/2000/svg" viewBox="0 0 1600 800" preserveAspectRatio="xMidYMid slice">
  <path d="M -100.0 -32.9 Q -40.5 -24.0, 19.1 -22.0 Q 75.1 -12.3, 131.2 1.1 Q 172.9 -0.5, 214.7 13.9 Q 255.8 26.9, 296.9 16.4 Q 339.0 19.3, 381.1 6.4 Q 433.9 8.6, 486.6 31.2 Q 530.3 20.8, 574.0 4.5 Q 632.9 13.1, 691.7 19.7 Q 749.0 18.2, 806.3 -13.3 Q 875.6 -18.1, 944.9 -41.3 Q 1010.6 -50.6, 1076.4 -42.9 Q 1120.7 -28.4, 1165.0 -52.3 Q 1214.3 -54.7, 1263.5 -26.5 Q 1309.0 -31.8, 1354.4 -30.5 Q 1413.6 -18.9, 1472.7 -27.8 Q 1529.2 -40.9, 1585.6 -26.2 Q 1627.4 -19.2, 1669.2 -11.3 Q 1729.6 -19.6, 1790.0 8.9" fill="none" stroke="rgba(255,255,255,0.08)" stroke-width="1.1" stroke-linecap="round"/>
  <path d="M -100.0 92.8 Q -42.8 113.6, 14.4 108.8 Q 63.8 122.2, 113.2 106.5 Q 171.0 93.8, 228.9 98.9 Q 282.6 94.9, 336.2 97.6 Q 404.6 75.6, 472.9 64.8 Q 532.8 64.0, 592.8 32.4 Q 653.8 54.9, 714.9 40.8 Q 784.7 28.2, 854.4 43.5 Q 903.0 25.3, 951.5 33.1 Q 1011.6 22.7, 1071.6 33.8 Q 1125.5 33.7, 1179.3 55.1 Q 1222.9 58.9, 1266.4 64.0 Q 1329.4 76.0, 1392.5 80.9 Q 1439.9 78.6, 1487.3 95.3 Q 1553.5 68.3, 1619.6 80.9 Q 1673.1 80.9, 1726.6 87.3" fill="none" stroke="rgba(255,255,255,0.05)" stroke-width="1.0" stroke-linecap="round"/>
  <path d="M -100.0 148.0 Q -31.4 146.1, 37.2 145.6 Q 92.7 119.3, 148.1 126.3 Q 208.4 88.7, 268.7 83.0 Q 335.7 79.1, 402.7 87.7 Q 468.9 74.7, 535.1 80.5 Q 586.9 89.2, 638.7 71.7 Q 681.8 68.1, 724.9 91.7 Q 766.8 69.9, 808.6 86.3 Q 854.9 114.9, 901.1 107.4 Q 951.3 114.7, 1001.5 119.7 Q 1041.6 111.3, 1081.6 131.1 Q 1124.6 137.6, 1167.7 140.6 Q 1208.4 128.5, 1249.2 154.1 Q 1307.6 134.0, 1366.0 111.7 Q 1413.6 125.4, 1461.2 100.9 Q 1512.1 102.1, 1563.0 74.2 Q 1628.5 89.8, 1693.9 89.8" fill="none" stroke="rgba(255,255,255,0.035)" stroke-width="0.8" stroke-linecap="round"/>
  <path d="M -100.0 182.1 Q -55.0 179.0, -10.0 177.6 Q 46.0 170.7, 102.0 151.7 Q 151.9 144.8, 201.8 114.0 Q 266.1 108.2, 330.4 135.5 Q 396.0 146.7, 461.6 144.9 Q 526.2 174.6, 590.7 171.5 Q 637.5 189.2, 684.3 184.3 Q 735.0 192.9, 785.6 181.5 Q 826.5 186.6, 867.3 193.4 Q 915.1 184.0, 962.9 200.4 Q 1031.6 193.9, 1100.3 164.3 Q 1168.4 151.8, 1236.5 152.8 Q 1305.1 145.0, 1373.8 113.2 Q 1420.4 130.6, 1467.0 110.3 Q 1512.9 112.0, 1558.8 122.1 Q 1617.5 143.6, 1676.3 173.0" fill="none" stroke="rgba(255,255,255,0.08)" stroke-width="1.1" stroke-linecap="round"/>
  <path d="M -100.0 248.5 Q -54.9 223.4, -9.8 204.6 Q 34.7 229.3, 79.3 220.5 Q 143.5 210.3, 207.7 200.0 Q 272.5 231.6, 337.3 260.7 Q 397.0 266.8, 456.7 271.0 Q 513.1 257.2, 569.6 281.9 Q 610.0 294.9, 650.5 312.6 Q 710.0 282.4, 769.4 277.5 Q 837.4 237.1, 905.5 236.5 Q 971.6 241.1, 1037.8 221.7 Q 1084.1 195.9, 1130.4 196.2 Q 1179.2 200.6, 1228.0 207.0 Q 1285.6 230.7, 1343.2 236.4 Q 1395.8 251.0, 1448.3 261.0 Q 1515.6 269.0, 1582.9 290.8 Q 1636.7 293.5, 1690.4 294.6" fill="none" stroke="rgba(255,255,255,0.05)" stroke-width="1.0" stroke-linecap="round"/>
  <path d="M -100.0 252.7 Q -56.8 255.8, -13.6 241.6 Q 33.8 250.9, 81.3 247.3 Q 144.4 257.3, 207.6 295.9 Q 264.5 332.2, 321.3 337.8 Q 388.7 354.8, 456.1 334.5 Q 514.4 312.1, 572.8 312.1 Q 628.2 315.1, 683.5 282.0 Q 737.1 260.6, 790.7 247.4 Q 845.0 250.8, 899.4 255.2 Q 960.3 285.2, 1021.3 276.0 Q 1089.6 300.7, 1157.9 298.9 Q 1214.6 311.1, 1271.4 350.5 Q 1336.6 332.2, 1401.8 319.4 Q 1445.5 314.9, 1489.1 309.2 Q 1531.3 285.1, 1573.5 273.9 Q 1615.7 256.2, 1657.9 262.9 Q 1721.4 250.6, 1784.9 252.8" fill="none" stroke="rgba(255,255,255,0.035)" stroke-width="0.8" stroke-linecap="round"/>
  <path d="M -100.0 290.4 Q -43.4 309.7, 13.2 341.9 Q 53.8 358.1, 94.3 369.9 Q 153.0 405.2, 211.8 406.4 Q 253.7 405.0, 295.6 422.1 Q 359.3 388.9, 422.9 385.3 Q 466.1 356.6, 509.2 325.8 Q 550.4 311.9, 591.6 318.9 Q 639.7 287.4, 687.8 287.1 Q 740.5 298.1, 793.1 336.2 Q 857.7 331.1, 922.3 362.0 Q 966.8 376.0, 1011.2 413.9 Q 1068.4 406.1, 1125.5 413.4 Q 1168.2 384.7, 1210.9 371.7 Q 1271.5 365.7, 1332.1 338.9 Q 1374.3 325.4, 1416.5 328.8 Q 1475.5 320.2, 1534.6 311.6 Q 1577.1 307.6, 1619.6 329.4 Q 1661.6 338.3, 1703.6 359.6" fill="none" stroke="rgba(255,255,255,0.08)" stroke-width="1.1" stroke-linecap="round"/>
  <path d="M -100.0 361.8 Q -59.5 374.8, -19.1 415.3 Q 37.5 416.7, 94.0 422.5 Q 148.2 418.2, 202.5 433.0 Q 245.7 431.5, 288.8 393.1 Q 341.8 383.5, 394.8 336.1 Q 459.8 327.7, 524.9 315.6 Q 580.1 326.2, 635.3 357.3 Q 704.7 400.3, 774.2 406.1 Q 839.2 415.8, 904.1 440.8 Q 963.2 414.2, 1022.3 399.2 Q 1072.7 350.1, 1123.2 340.9 Q 1167.0 320.9, 1210.9 310.4 Q 1273.2 311.9, 1335.4 315.4 Q 1380.3 327.6, 1425.2 339.6 Q 1490.4 370.6, 1555.7 425.4 Q 1615.8 425.9, 1675.9 425.9 Q 1723.2 396.9, 1770.4 407.5" fill="none" stroke="rgba(255,255,255,0.05)" stroke-width="1.0" stroke-linecap="round"/>
  <path d="M -100.0 477.3 Q -48.0 472.8, 4.0 489.8 Q 44.6 465.0, 85.3 477.7 Q 132.3 444.5, 179.3 440.8 Q 235.2 414.5, 291.0 399.4 Q 350.8 384.1, 410.5 400.3 Q 476.9 438.2, 543.2 449.2 Q 593.0 484.2, 642.8 514.5 Q 687.3 519.6, 731.8 514.4 Q 791.1 487.7, 850.4 450.8 Q 915.4 441.0, 980.5 416.6 Q 1039.3 404.4, 1098.1 393.1 Q 1162.5 385.2, 1226.9 417.0 Q 1282.6 463.4, 1338.3 486.0 Q 1403.3 511.0, 1468.4 516.1 Q 1533.2 488.1, 1598.0 459.8 Q 1664.7 431.7, 1731.5 400.9" fill="none" stroke="rgba(255,255,255,0.035)" stroke-width="0.8" stroke-linecap="round"/>
  <path d="M -100.0 571.0 Q -37.9 536.7, 24.2 526.5 Q 66.4 521.3, 108.7 477.7 Q 170.6 479.5, 232.4 446.4 Q 294.6 464.7, 356.8 521.6 Q 411.6 540.4, 466.5 562.4 Q 520.8 591.0, 575.2 593.9 Q 638.2 586.6, 701.2 541.9 Q 760.5 497.5, 819.8 457.1 Q 864.2 443.2, 908.6 447.8 Q 970.9 459.7, 1033.2 494.8 Q 1090.3 539.8, 1147.3 549.1 Q 1189.1 552.9, 1230.9 579.8 Q 1291.1 574.2, 1351.2 562.0 Q 1411.5 505.7, 1471.8 477.9 Q 1527.3 467.5, 1582.8 455.0 Q 1636.8 483.2, 1690.8 475.2" fill="none" stroke="rgba(255,255,255,0.08)" stroke-width="1.1" stroke-linecap="round"/>
  <path d="M -100.0 592.3 Q -44.7 547.6, 10.5 523.0 Q 71.6 490.5, 132.7 476.7 Q 199.7 516.8, 266.6 556.1 Q 307.3 559.6, 348.1 587.8 Q 402.8 597.3, 457.6 616.9 Q 506.6 605.5, 555.7 557.6 Q 606.0 543.9, 656.3 499.5 Q 721.5 498.2, 786.7 471.9 Q 849.3 527.4, 911.8 572.4 Q 955.4 615.6, 999.0 625.7 Q 1060.4 643.3, 1121.8 625.6 Q 1170.5 589.8, 1219.2 550.0 Q 1271.0 539.9, 1322.7 512.3 Q 1380.4 482.4, 1438.1 488.6 Q 1490.9 526.9, 1543.8 546.6 Q 1585.2 566.7, 1626.7 590.7 Q 1691.7 608.1, 1756.7 605.3" fill="none" stroke="rgba(255,255,255,0.05)" stroke-width="1.0" stroke-linecap="round"/>
  <path d="M -100.0 590.4 Q -58.5 566.8, -17.1 578.3 Q 26.8 570.3, 70.6 580.1 Q 120.9 630.9, 171.2 644.3 Q 233.4 670.6, 295.5 726.8 Q 343.3 706.3, 391.1 685.5 Q 440.2 653.0, 489.2 610.2 Q 541.0 594.8, 592.9 550.3 Q 637.7 551.3, 682.6 575.0 Q 749.7 618.6, 816.9 680.6 Q 863.5 692.4, 910.1 724.3 Q 980.0 677.6, 1049.9 638.8 Q 1094.1 601.7, 1138.3 568.9 Q 1181.0 581.2, 1223.7 557.2 Q 1266.5 587.7, 1309.2 590.4 Q 1356.9 646.5, 1404.7 672.8 Q 1471.3 675.0, 1537.9 715.5 Q 1590.3 662.0, 1642.7 645.9 Q 1698.4 616.3, 1754.1 569.9" fill="none" stroke="rgba(255,255,255,0.035)" stroke-width="0.8" stroke-linecap="round"/>
  <path d="M -100.0 626.9 Q -42.4 622.5, 15.2 657.2 Q 67.0 707.4, 118.7 773.4 Q 183.5 776.6, 248.3 783.0 Q 317.4 737.9, 386.6 656.2 Q 429.9 641.5, 473.1 615.3 Q 528.8 663.0, 584.5 680.0 Q 652.7 730.1, 721.0 782.2 Q 780.4 764.8, 839.8 768.6 Q 893.5 711.8, 947.2 675.2 Q 988.4 676.0, 1029.6 639.9 Q 1076.6 661.1, 1123.6 665.8 Q 1182.9 694.1, 1242.3 737.7 Q 1286.1 736.9, 1330.0 774.3 Q 1389.1 756.8, 1448.2 739.5 Q 1491.5 699.6, 1534.9 645.8 Q 1590.6 636.2, 1646.4 633.1 Q 1698.0 647.7, 1749.6 681.8" fill="none" stroke="rgba(255,255,255,0.08)" stroke-width="1.1" stroke-linecap="round"/>
  <path d="M -100.0 712.2 Q -53.2 757.6, -6.4 763.3 Q 43.7 814.0, 93.9 830.3 Q 154.4 787.4, 214.8 758.2 Q 278.8 707.4, 342.7 681.7 Q 397.8 705.4, 453.0 694.2 Q 522.1 763.6, 591.2 813.4 Q 655.8 783.4, 720.4 790.9 Q 767.0 765.1, 813.6 726.1 Q 862.5 700.9, 911.3 685.5 Q 966.2 695.4, 1021.1 715.4 Q 1067.8 753.9, 1114.5 805.8 Q 1174.4 807.3, 1234.4 835.2 Q 1278.8 769.2, 1323.2 742.9 Q 1369.6 709.7, 1416.0 694.2 Q 1460.2 674.5, 1504.5 666.7 Q 1546.3 724.5, 1588.1 745.9 Q 1655.0 781.4, 1722.0 847.0" fill="none" stroke="rgba(255,255,255,0.05)" stroke-width="1.0" stroke-linecap="round"/>
</svg>